<svg xmlns="http://www.w3.org/2000/svg" viewBox="0 0 500 500"><path d="M410.25 249.13c-89.63-51.53-234.95-51.53-324.58 0s-89.62 135.09 0 186.62 234.94 51.54 324.57 0 89.63-135.08.01-186.62z" fill="#f5f5f5"/><g fill="#e0e0e0"><ellipse cx="139.25" cy="312.65" rx="63.45" ry="36.64"/><path d="M247.29 409l-5.9-3.41 4.29-2.47a4.56 4.56 0 000-8.21L235 388.7a9 9 0 00-8.37 0l-7.21 4.17-37.26-21.52a9 9 0 00-8.37 0l-15.22 8.79a7.46 7.46 0 00-2.73 2.38 5.41 5.41 0 00-.59 3.92l7.88 39.44c.46 2 1.94 3.71 4.41 5.13l10.69 6.17a8.19 8.19 0 004.17 1 8.22 8.22 0 004.19-1l30.3-17.49 8.82 5.09a9 9 0 008.37 0l13.2-7.62a4.56 4.56 0 000-8.21zm-58.68 1.69l-1.77-8.88 8.57 5zm118.01-63.1c-2.67-1.7-5.62-3.48-8.77-5.31s-6.29-3.54-9.4-5.19a67.84 67.84 0 00-13.07-5 58.37 58.37 0 00-14.81-2.09h-.68a64 64 0 00-15 1.86 61.37 61.37 0 00-16 6.54c-5.45 3.15-9.27 6.28-11.69 9.6a16.72 16.72 0 00-3.63 10.47 16.24 16.24 0 004 9.88 39.49 39.49 0 009.06 7.83c2.76 1.75 5.78 3.57 9 5.42s6.28 3.55 9.19 5.07a68.35 68.35 0 0013.07 5.05 58.35 58.35 0 0014.8 2.05h.7a63.81 63.81 0 0015-1.86 61.37 61.37 0 0016-6.54c5.45-3.15 9.27-6.29 11.69-9.6a16.66 16.66 0 003.63-10.47 16.26 16.26 0 00-4-9.88 39 39 0 00-9.09-7.83zm-18.12 20.88a9.24 9.24 0 01-3.16 2.51 17.21 17.21 0 01-9 2.5h-1.05a18.2 18.2 0 01-4.73-.93 32.91 32.91 0 01-4.9-2.13 188.5 188.5 0 01-16.72-9.66 17.64 17.64 0 01-3.37-2.63 4 4 0 01-1.12-1.77c0-.1-.09-.4.34-1.06a9.15 9.15 0 013.15-2.51 18 18 0 015.12-2.06 17.27 17.27 0 013.73-.42h1.12a19.3 19.3 0 014.73 1 41.7 41.7 0 015 2.06c5.75 3 11.38 6.27 16.75 9.67a20.84 20.84 0 013.48 2.66 3.44 3.44 0 011 1.63c.02.08.13.44-.37 1.14zm106.07-44.54l-5.9-3.41L393 318a4.56 4.56 0 000-8.2l-10.69-6.17a8.39 8.39 0 00-4.19-1 8.31 8.31 0 00-4.18 1l-7.21 4.16-37.26-21.51a9 9 0 00-8.36 0l-15.23 8.79a7.63 7.63 0 00-2.73 2.38 5.43 5.43 0 00-.59 3.93l7.89 39.43c.45 2 1.94 3.71 4.41 5.14l10.68 6.17a8.3 8.3 0 004.18 1 8.3 8.3 0 004.18-1l30.3-17.5 8.83 5.1a9 9 0 008.36 0l13.2-7.63a4.55 4.55 0 000-8.2zm-58.68 1.68l-1.77-8.88 8.58 4.95z"/></g><path d="M435.37 85.75l-9.46-5.46a8.57 8.57 0 00.08-1.16v-2.74a16.92 16.92 0 00-7.65-13.25 6 6 0 00-4.56-.88c-.69-6.94-5.51-14.78-11.35-18.15-6.32-3.65-11.45-.69-11.45 6.6v4.11a19.92 19.92 0 001 5.87l-7.86-4.54c-2.34-1.36-4.24-.26-4.24 2.45a9.41 9.41 0 004.21 7.4l51.28 29.6c2.34 1.36 4.24.26 4.24-2.45a9.41 9.41 0 00-4.24-7.4zM378 95.89l-6-3.48a5.74 5.74 0 000-.74v-1.74a10.79 10.79 0 00-4.87-8.45 3.85 3.85 0 00-2.91-.56c-.44-4.41-3.51-9.41-7.23-11.56-4-2.32-7.29-.44-7.29 4.21v2.61a12.46 12.46 0 00.62 3.74l-5-2.89c-1.49-.86-2.7-.16-2.7 1.56a6 6 0 002.7 4.68L378 102.14c1.49.86 2.7.16 2.7-1.57a6 6 0 00-2.7-4.68z" fill="#ebebeb"/><path d="M373.82 300.75c-3.23-14.81-8.41-29.33-5.2-52 2.92-20.54 13.71-38.89 29.08-41 10.36-1.38 19.41 10.17 9.27 25-1.69 2.47-23.65 24-20 53.67l-2.05 19.74z" fill="#fff"/><path d="M373.82 300.75c-3.23-14.81-8.41-29.33-5.2-52 2.92-20.54 13.71-38.89 29.08-41 10.36-1.38 19.41 10.17 9.27 25-1.69 2.47-23.65 24-20 53.67l-2.05 19.74z" opacity=".2"/><path d="M379.2 298.55a.67.67 0 00.38-.71c-6-38 1.65-66.37 20-82a.67.67 0 00.08-.94.68.68 0 00-1-.08c-18.58 15.8-26.49 44.72-20.45 83.19a.66.66 0 00.76.56z" fill="#fff"/><path d="M391.14 312.06c-.07-5.76 3.11-18.32 10.64-29.27 9.5-13.82 24.32-18.34 25.83-25.58 1.82-8.7-7.29-13.67-19.08-9.45-14.19 5.08-30.94 25.51-25.13 59.95z" fill="#455a64"/><path d="M387.27 306a.71.71 0 00.45-.63c1.6-30.57 19.75-46.58 29.13-50.77a.72.72 0 00.36-.95.7.7 0 00-.95-.36c-10.37 4.63-28.34 20.8-30 52a.72.72 0 00.69.75.63.63 0 00.32-.04zm-142.61 95.34L231.45 409a6.1 6.1 0 01-5.44 0l-10.29-6L184 421.36a6 6 0 01-5.45 0l-10.68-6.17c-1.76-1-2.76-2.09-3-3.26L157 372.58a3.61 3.61 0 01-.06-.7v11.06a3.38 3.38 0 00.06.6l7.87 39.35c.27 1.17 1.27 2.26 3 3.27l10.68 6.17a6.12 6.12 0 005.45 0L215.72 414l10.28 5.92a6 6 0 005.44 0l13.21-7.62a1.85 1.85 0 001.11-1.58v-11a1.89 1.89 0 01-1.1 1.62zm-.51-4.7v-11a1.86 1.86 0 01-1.11 1.58l-8.67 5 9.36 5.4a1.49 1.49 0 00.42-.98z" fill="#fff"/><path fill="#fff" d="M184.02 395.09l6.57 3.81 9.5-5.48-18.55-10.72 2.46 12.39h.02z"/><path opacity=".35" d="M184.02 395.09l6.57 3.81 9.5-5.48-18.55-10.72 2.46 12.39h.02z"/><path d="M244.15 396.64v-11a1.86 1.86 0 01-1.11 1.58l-8.67 5 9.36 5.4a1.49 1.49 0 00.42-.98zm.51 4.7L231.45 409a5.35 5.35 0 01-2.73.64v11a5.26 5.26 0 002.73-.65l13.21-7.62a1.85 1.85 0 001.11-1.58v-11a1.89 1.89 0 01-1.11 1.55z" opacity=".2"/><path d="M164.8 411.93l-7.87-39.35a3.61 3.61 0 01-.06-.7v11.06a3.38 3.38 0 00.06.6l7.87 39.35a2.45 2.45 0 00.24.67v-11a2.51 2.51 0 01-.24-.63z" opacity=".25"/><path d="M181.23 422a5.47 5.47 0 01-2.72-.65l-10.68-6.17a6.46 6.46 0 01-2.79-2.6v11a6.52 6.52 0 002.79 2.6l10.68 6.17a5.47 5.47 0 002.72.64 1.62 1.62 0 00.31 0V422a1.09 1.09 0 01-.31 0z" opacity=".35"/><path d="M184 421.36a4.93 4.93 0 01-2.42.62v11a5.15 5.15 0 002.42-.62L215.72 414v-11z" opacity=".2"/><path d="M226 409l-10.28-6v11l10.28 5.92a5.21 5.21 0 002.71.65v-11A5.3 5.3 0 01226 409z" opacity=".35"/><path d="M231.45 409a6.12 6.12 0 01-5.45 0l-10.28-6L184 421.36a6.12 6.12 0 01-5.45 0l-10.68-6.17q-2.62-1.51-3-3.26l-7.86-39.35a2.53 2.53 0 01.2-1.81 5 5 0 011.71-1.4l15.23-8.79a6.1 6.1 0 015.44 0l38.72 22.36 8.67-5a6.12 6.12 0 015.45 0L243 384.1a1.67 1.67 0 010 3.15l-8.67 5 10.29 5.94a1.67 1.67 0 010 3.14zm-31.36-15.54l-18.55-10.71 3.83 19.21zm115.55-40.81a14.3 14.3 0 01-3.09 8.09q-3.23 4.41-10.79 8.79a57.94 57.94 0 01-15.22 6.23 60.19 60.19 0 01-15 1.77 54.92 54.92 0 01-14.07-1.95 64.12 64.12 0 01-12.47-4.84q-4.32-2.26-9.07-5t-8.87-5.36a35.6 35.6 0 01-8.36-7.21 13.37 13.37 0 01-3.38-8.12c.06 1.74-.07 9.05 0 11a13.37 13.37 0 003.38 8.13 36.07 36.07 0 008.36 7.21q4.14 2.63 8.87 5.35t9.07 5a64.74 64.74 0 0012.51 4.83 55.37 55.37 0 0014.07 1.95 60.22 60.22 0 0015-1.78 57.94 57.94 0 0015.22-6.23q7.58-4.37 10.79-8.79a13.83 13.83 0 003.08-8.64c-.1-1.63.01-7.94-.03-10.43z" fill="#fff"/><path d="M274.26 377.48c-.9 0-1.8.07-2.69 0a54.92 54.92 0 01-14.07-1.95 64.12 64.12 0 01-12.5-4.79q-4.32-2.26-9.07-5t-8.87-5.36a35.6 35.6 0 01-8.36-7.21 13.37 13.37 0 01-3.38-8.12c.06 1.74-.07 9.05 0 11a13.37 13.37 0 003.38 8.13 36.07 36.07 0 008.36 7.21q4.14 2.63 8.87 5.35t9.07 5a64.74 64.74 0 0012.51 4.83 55.37 55.37 0 0014.07 1.95c.89 0 1.79 0 2.69-.06z" opacity=".35"/><path d="M315.64 352.65a14.3 14.3 0 01-3.09 8.09q-3.23 4.41-10.79 8.79a57.94 57.94 0 01-15.22 6.23 61.82 61.82 0 01-12.28 1.72v11a60.39 60.39 0 0012.28-1.72 57.94 57.94 0 0015.22-6.23q7.58-4.37 10.79-8.79a13.83 13.83 0 003.08-8.64c-.06-1.65.05-7.96.01-10.45z" opacity=".2"/><path d="M242.28 346.82a15.5 15.5 0 002 1.73c.34-.22.67-.44 1.05-.66a21.43 21.43 0 015.95-2.39 19.89 19.89 0 015.7-.43 22.35 22.35 0 015.45 1.1 47.79 47.79 0 015.39 2.24q8.77 4.62 16.94 9.79c.71.44 1.37.9 2 1.34a10.29 10.29 0 003.08-2.77 4.5 4.5 0 00.81-3.32 6.15 6.15 0 00-1.86-3.17 24.55 24.55 0 00-4-3q-8.18-5.19-16.94-9.78a46.1 46.1 0 00-5.39-2.25 22.83 22.83 0 00-5.45-1.1 19.91 19.91 0 00-5.7.44 21.09 21.09 0 00-5.95 2.38 12.34 12.34 0 00-4.13 3.44 4.26 4.26 0 00-.76 3.28 7 7 0 001.81 3.13z" fill="#fff"/><path d="M242.28 346.82a15.5 15.5 0 002 1.73c.34-.22.67-.44 1.05-.66a21.43 21.43 0 015.95-2.39 19.89 19.89 0 015.7-.43 22.35 22.35 0 015.45 1.1 47.79 47.79 0 015.39 2.24q8.77 4.62 16.94 9.79c.71.44 1.37.9 2 1.34a10.29 10.29 0 003.08-2.77 4.5 4.5 0 00.81-3.32 6.15 6.15 0 00-1.86-3.17 24.55 24.55 0 00-4-3q-8.18-5.19-16.94-9.78a46.1 46.1 0 00-5.39-2.25 22.83 22.83 0 00-5.45-1.1 19.91 19.91 0 00-5.7.44 21.09 21.09 0 00-5.95 2.38 12.34 12.34 0 00-4.13 3.44 4.26 4.26 0 00-.76 3.28 7 7 0 001.81 3.13z" opacity=".35"/><path d="M229.17 327.61a57.66 57.66 0 0115.23-6.23 60.19 60.19 0 0115-1.77 55 55 0 0114.07 1.95 64.39 64.39 0 0112.5 4.83q4.53 2.39 9.28 5.12c3.16 1.83 6 3.57 8.67 5.24a36.55 36.55 0 018.37 7.22 13.39 13.39 0 013.37 8.12 13.76 13.76 0 01-3.07 8.64q-3.22 4.42-10.79 8.8a57.63 57.63 0 01-15.23 6.22 59.7 59.7 0 01-15 1.78 55.29 55.29 0 01-14.06-1.95 64.24 64.24 0 01-12.51-4.83 269.92 269.92 0 01-17.95-10.35 36.3 36.3 0 01-8.36-7.22 13.35 13.35 0 01-3.38-8.12 13.85 13.85 0 013.07-8.65q3.23-4.41 10.79-8.8zm55.56 19.62q-8.18-5.18-16.94-9.78a44.35 44.35 0 00-5.39-2.24 22.37 22.37 0 00-5.4-1.11 19.88 19.88 0 00-5.7.44 20.84 20.84 0 00-5.95 2.39 12.1 12.1 0 00-4.13 3.43 4.24 4.24 0 00-.76 3.29 6.79 6.79 0 001.87 3.17 20.69 20.69 0 003.93 3.09 191.88 191.88 0 0016.94 9.78 36.37 36.37 0 005.29 2.3 21 21 0 005.5 1.07 20.54 20.54 0 005.75-.46 20.84 20.84 0 005.95-2.39 12.22 12.22 0 004.13-3.43 4.46 4.46 0 00.81-3.32 6.13 6.13 0 00-1.87-3.17 23.1 23.1 0 00-4.03-3.06zm107.21-30.93l-13.21 7.62a6 6 0 01-5.44 0L363 318l-31.77 18.35a5.42 5.42 0 01-2.72.64 5.48 5.48 0 01-2.73-.64l-10.68-6.18q-2.62-1.5-3-3.26l-7.87-39.35a4.51 4.51 0 010-.7v11.06a4.55 4.55 0 000 .61l7.87 39.35c.27 1.17 1.28 2.25 3 3.26l10.68 6.17a5.48 5.48 0 002.73.65 5.42 5.42 0 002.72-.65L363 329l10.28 5.94a6.1 6.1 0 005.44 0l13.21-7.62a1.86 1.86 0 001.11-1.58v-11a1.86 1.86 0 01-1.1 1.56zm-.5-4.7v-11a1.86 1.86 0 01-1.11 1.57l-8.68 5 9.37 5.4a1.57 1.57 0 00.42-.97z" fill="#fff"/><path fill="#fff" d="M331.3 310.06l6.57 3.81 9.51-5.48-18.56-10.72 2.47 12.39h.01z"/><path opacity=".35" d="M331.3 310.06l6.57 3.81 9.51-5.48-18.56-10.72 2.47 12.39h.01z"/><path d="M391.44 311.6v-11a1.86 1.86 0 01-1.11 1.57l-8.68 5 9.37 5.4a1.57 1.57 0 00.42-.97zm.5 4.7l-13.21 7.62a5.24 5.24 0 01-2.72.65v11a5.34 5.34 0 002.72-.64l13.21-7.62a1.86 1.86 0 001.11-1.58v-11a1.86 1.86 0 01-1.11 1.57z" opacity=".2"/><path d="M312.08 326.89l-7.87-39.35a4.51 4.51 0 010-.7v11.06a4.55 4.55 0 000 .61l7.87 39.35a2.55 2.55 0 00.25.66v-11a2.61 2.61 0 01-.25-.63z" opacity=".25"/><path d="M328.52 337a5.48 5.48 0 01-2.73-.64l-10.68-6.18a6.36 6.36 0 01-2.78-2.59v11a6.37 6.37 0 002.78 2.6l10.68 6.17a5.48 5.48 0 002.73.65 1 1 0 00.3 0V337a1.51 1.51 0 01-.3 0z" opacity=".35"/><path d="M331.24 336.33a5.12 5.12 0 01-2.42.62v11a4.9 4.9 0 002.42-.62L363 329v-11z" opacity=".2"/><path d="M373.29 323.92L363 318v11l10.28 5.94a5.32 5.32 0 002.72.64v-11a5.22 5.22 0 01-2.71-.66z" opacity=".35"/><path d="M378.73 323.92a6.1 6.1 0 01-5.44 0L363 318l-31.76 18.34a6.1 6.1 0 01-5.44 0l-10.69-6.17c-1.75-1-2.76-2.09-3-3.26l-7.86-39.35a2.54 2.54 0 01.2-1.8 4.91 4.91 0 011.71-1.4l15.23-8.79a6.1 6.1 0 015.44 0l38.72 22.35 8.67-5a6 6 0 015.45 0l10.69 6.17a1.67 1.67 0 010 3.14l-8.67 5 10.28 5.93a1.67 1.67 0 010 3.15zm-31.36-15.54l-18.55-10.71 3.83 19.21z" fill="#fff"/><path d="M310.38 409.16a1.62 1.62 0 01.83-.19 1.64 1.64 0 01.83.19l3.25 1.89a.5.5 0 010 .95l-14.56 8.41a1.64 1.64 0 01-.83.2 1.62 1.62 0 01-.83-.2L279.22 409a.51.51 0 010-1l14.32-8.26a1.62 1.62 0 01.83-.2 1.67 1.67 0 01.83.2l3.25 1.88a.5.5 0 010 .95L289 408l3.32 1.91 8.79-5.07a1.62 1.62 0 01.83-.19 1.67 1.67 0 01.83.19l3.25 1.88a.51.51 0 010 1l-8.79 5.07 3.45 2zm4.85-15.57a1.67 1.67 0 01.83-.2 1.62 1.62 0 01.83.2l3.11 1.79a.51.51 0 010 1l-2.8 1.62q-2.82 1.64 0 3.27l7.56 4.36a.51.51 0 010 1l-3.87 2.23a1.64 1.64 0 01-.83.2 1.62 1.62 0 01-.83-.2l-14.32-8.26a.51.51 0 010-1l3.56-2.06a1.64 1.64 0 01.83-.2 1.62 1.62 0 01.83.2l.71.41a3.09 3.09 0 01.6-1.63 5.93 5.93 0 011.95-1.62zm14.88-8.59a1.62 1.62 0 01.83-.2 1.64 1.64 0 01.83.2l3.1 1.79a.51.51 0 010 1l-2.8 1.61q-2.82 1.63 0 3.27l7.56 4.36a.51.51 0 010 1l-3.87 2.24a1.62 1.62 0 01-.83.19 1.67 1.67 0 01-.83-.19L319.78 392a.51.51 0 010-1l3.57-2.06a1.62 1.62 0 01.83-.19 1.67 1.67 0 01.83.19l.7.41a3.06 3.06 0 01.6-1.62 6.06 6.06 0 011.95-1.63zm26.43-7.38c.32.16.73.38 1.21.66s.87.51 1.15.7a6.28 6.28 0 012.09 2 3.64 3.64 0 01.57 2.28 4.48 4.48 0 01-1.07 2.38 10.16 10.16 0 01-2.85 2.28 16.25 16.25 0 01-3.95 1.64 17.87 17.87 0 01-4.11.62 17.1 17.1 0 01-3.95-.33 12.82 12.82 0 01-3.44-1.2c-.33-.17-.74-.39-1.22-.67s-.86-.51-1.15-.7a6.16 6.16 0 01-2.12-2 3.53 3.53 0 01-.55-2.29 4.66 4.66 0 011.07-2.39 9.75 9.75 0 012.83-2.29 15.93 15.93 0 014-1.64 19.48 19.48 0 014.15-.62 17.05 17.05 0 013.95.33 13 13 0 013.39 1.24zm-9 7.73a5.38 5.38 0 002.68.57 5.6 5.6 0 002.64-.76q1.23-.71 1.32-1.53c.06-.54-.26-1.06-1-1.54a9.54 9.54 0 00-1-.64c-.38-.22-.75-.41-1.1-.57a5.62 5.62 0 00-5.32.2c-.82.47-1.26 1-1.32 1.52s.27 1.06 1 1.55a11.72 11.72 0 002.09 1.2zm16.99-20.22a1.62 1.62 0 01.83-.2 1.64 1.64 0 01.83.2l3.1 1.79a.51.51 0 010 1l-2.8 1.61q-2.82 1.63 0 3.27l7.56 4.36a.51.51 0 010 1l-3.87 2.23a1.62 1.62 0 01-.83.2 1.67 1.67 0 01-.83-.2l-14.32-8.26a.51.51 0 010-1l3.57-2.06a1.62 1.62 0 01.83-.2 1.67 1.67 0 01.83.2l.7.41a3.09 3.09 0 01.6-1.63 5.93 5.93 0 011.95-1.62z" fill="#455a64"/><path d="M152.59 274.36c-4.22-.17-6.08.25-5.43 4.71s.85 7.9.85 7.9 7.51.22 11-1.73-.08-10.63-6.42-10.88z" fill="#fff"/><path d="M152.59 274.36c-4.22-.17-6.08.25-5.43 4.71s.85 7.9.85 7.9 7.51.22 11-1.73-.08-10.63-6.42-10.88z" opacity=".5"/><path d="M153.26 293.52a4.56 4.56 0 01-.82-.08 4.26 4.26 0 01-3.35-5c1.09-5.54 2.17-9.82 3.13-13.59a108.4 108.4 0 003.15-16 41 41 0 00-5.18-24.15 4.24 4.24 0 117.3-4.33 49.29 49.29 0 016.32 29.4 114.15 114.15 0 01-3.36 17.14c-.92 3.67-2 7.83-3 13.15a4.25 4.25 0 01-4.19 3.46zm-10.16 5.74a5.29 5.29 0 000 2.49c.59 1.1 3.86 2.45 5.58 3.16a10 10 0 015.42 5c1.92 3.51 5.42 5.88 9.33 7.37a27.44 27.44 0 0016.3.59c6.69-1.67 7-5.7 7-5.7s.1-3.78-1.62-4.26-42.01-8.65-42.01-8.65z" fill="#455a64"/><path d="M145.8 285.22a26.77 26.77 0 01-.81 3.52c-1 3.17-2.55 6.44-1.89 10.52 1.1 2 3.4 2.7 5.12 3.46 2.31 1 4 1.71 5.63 3.71 3 3.59 5.81 8.13 14.79 9.3s15.52-2.1 17-4.74-.18-4.91-6.07-7.59c-3-1.37-9.81-7-10.59-7.72a14.83 14.83 0 01-1.92-2.41 14.61 14.61 0 01-2.4-6 21 21 0 01.33-6.83c.1-.52.36-1.06.14-1.53-.57-1.26-2.54-.93-3.63-.84a36.26 36.26 0 00-4.84.83 2.79 2.79 0 00-1.44.61 2.92 2.92 0 00-.63 1.38c-.21.75-.43 1.5-.67 2.23a2.06 2.06 0 01-.88 1.31 1.31 1.31 0 01-1.46-.36 2.39 2.39 0 01-.55-1.46c0-.54 0-1.07.06-1.6a2.51 2.51 0 00-.29-1.48c-.59-.93-2.08-1.08-2.46-2.11a1.59 1.59 0 01.45-1.61 2.83 2.83 0 011.61-.66 12.68 12.68 0 011.75 0l.32-1.24a7.67 7.67 0 00-4.09.52 3.69 3.69 0 00-1.87 1.76 5.33 5.33 0 00-.15 3.07c.25 2.34-.18 3.62-.56 5.96z" fill="#fff"/><path d="M145.8 285.22a26.77 26.77 0 01-.81 3.52c-1 3.17-2.55 6.44-1.89 10.52 1.1 2 3.4 2.7 5.12 3.46 2.31 1 4 1.71 5.63 3.71 3 3.59 5.81 8.13 14.79 9.3s15.52-2.1 17-4.74-.18-4.91-6.07-7.59c-3-1.37-9.81-7-10.59-7.72a14.83 14.83 0 01-1.92-2.41 14.61 14.61 0 01-2.4-6 21 21 0 01.33-6.83c.1-.52.36-1.06.14-1.53-.57-1.26-2.54-.93-3.63-.84a36.26 36.26 0 00-4.84.83 2.79 2.79 0 00-1.44.61 2.92 2.92 0 00-.63 1.38c-.21.75-.43 1.5-.67 2.23a2.06 2.06 0 01-.88 1.31 1.31 1.31 0 01-1.46-.36 2.39 2.39 0 01-.55-1.46c0-.54 0-1.07.06-1.6a2.51 2.51 0 00-.29-1.48c-.59-.93-2.08-1.08-2.46-2.11a1.59 1.59 0 01.45-1.61 2.83 2.83 0 011.61-.66 12.68 12.68 0 011.75 0l.32-1.24a7.67 7.67 0 00-4.09.52 3.69 3.69 0 00-1.87 1.76 5.33 5.33 0 00-.15 3.07c.25 2.34-.18 3.62-.56 5.96z" opacity=".35"/><path d="M162.68 314.17a11.66 11.66 0 016-10.24c6.45-3.86 10.66-1.93 12.81-.6 2.55 1.59 6.28 5 4.34 7.82-2.09 3-5.66 4.63-12.47 5.17s-10.68-2.15-10.68-2.15zm-8.9-23.17a.74.74 0 00.64-.25c.89-.95 6.3-4.22 10.39-2.54.1-.15.27-1.15-.22-1.46a12.74 12.74 0 00-11.32 3 .72.72 0 00.07 1 .83.83 0 00.44.25zm12.75 1.49a2.09 2.09 0 00-.66-1.53c-4.66-.66-9.34 2.27-10.37 3.38a.72.72 0 00.08 1 .74.74 0 00.44.18.76.76 0 00.64-.24c.86-.89 6.19-3.98 9.87-2.79zm7.05 6.93c-.07-.48-1-1.2-1.79-1.4-5.15-.35-9.5 3.57-10.35 4.87a.71.71 0 00.24 1 .8.8 0 00.47.11.79.79 0 00.59-.34c.76-1.15 5.96-5.54 10.84-4.24zm-14.88.58a.83.83 0 00.61-.31c.75-1.05 5.27-5 9.92-3.81 0-.41-.82-1.22-1.24-1.33-4.61-.42-9.07 3.07-10 4.3a.72.72 0 00.19 1 .82.82 0 00.52.15z" fill="#fafafa"/><path d="M105.66 289.11c-4.2-.34-6.09 0-5.62 4.48s.52 7.93.52 7.93 7.49.53 11.06-1.27.38-10.62-5.96-11.14z" fill="#fff"/><path d="M105.66 289.11c-4.2-.34-6.09 0-5.62 4.48s.52 7.93.52 7.93 7.49.53 11.06-1.27.38-10.62-5.96-11.14z" opacity=".5"/><path d="M105.53 308.28a4.61 4.61 0 01-.82-.11 4.24 4.24 0 01-3.13-5.13c1.32-5.49 2.58-9.71 3.69-13.45a106.87 106.87 0 003.82-15.83 41 41 0 00-4.16-24.34 4.25 4.25 0 017.48-4 49.4 49.4 0 015.08 29.58 113.91 113.91 0 01-4.08 17c-1.08 3.63-2.3 7.74-3.57 13a4.25 4.25 0 01-4.31 3.28zm-10.39 5.31a5.2 5.2 0 00-.13 2.49c.54 1.12 3.74 2.61 5.43 3.39a10 10 0 015.2 5.26c1.78 3.58 5.18 6.1 9 7.75a27.44 27.44 0 0016.26 1.27c6.75-1.38 7.2-5.4 7.2-5.4s.26-3.77-1.44-4.32-41.52-10.44-41.52-10.44z" fill="#455a64"/><path d="M98.42 299.68a28 28 0 01-1 3.48c-1.1 3.13-2.82 6.32-2.33 10.43 1 2 3.27 2.84 5 3.68 2.27 1.12 3.9 1.87 5.47 3.94 2.82 3.71 5.46 8.37 14.39 9.91s15.6-1.45 17.18-4 0-4.91-5.75-7.84c-2.93-1.49-9.51-7.38-10.26-8.15a16.7 16.7 0 01-4-8.58 21.2 21.2 0 01.61-6.81c.13-.51.41-1 .21-1.53-.52-1.28-2.5-1-3.59-1a34.7 34.7 0 00-4.87.63 2.81 2.81 0 00-1.47.55 3 3 0 00-.69 1.35c-.23.74-.48 1.48-.76 2.21a2.05 2.05 0 01-.93 1.26 1.31 1.31 0 01-1.44-.41 2.34 2.34 0 01-.49-1.49 14.18 14.18 0 01.13-1.6 2.6 2.6 0 00-.23-1.49c-.55-.95-2-1.16-2.37-2.21a1.53 1.53 0 01.52-1.58 2.64 2.64 0 011.63-.59 13.11 13.11 0 011.76 0l.36-1.22a7.73 7.73 0 00-4.11.34 3.7 3.7 0 00-1.94 1.69 5.38 5.38 0 00-.28 3.05c.21 2.4-.27 3.65-.75 5.98z" fill="#fff"/><path d="M98.42 299.68a28 28 0 01-1 3.48c-1.1 3.13-2.82 6.32-2.33 10.43 1 2 3.27 2.84 5 3.68 2.27 1.12 3.9 1.87 5.47 3.94 2.82 3.71 5.46 8.37 14.39 9.91s15.6-1.45 17.18-4 0-4.91-5.75-7.84c-2.93-1.49-9.51-7.38-10.26-8.15a16.7 16.7 0 01-4-8.58 21.2 21.2 0 01.61-6.81c.13-.51.41-1 .21-1.53-.52-1.28-2.5-1-3.59-1a34.7 34.7 0 00-4.87.63 2.81 2.81 0 00-1.47.55 3 3 0 00-.69 1.35c-.23.74-.48 1.48-.76 2.21a2.05 2.05 0 01-.93 1.26 1.31 1.31 0 01-1.44-.41 2.34 2.34 0 01-.49-1.49 14.18 14.18 0 01.13-1.6 2.6 2.6 0 00-.23-1.49c-.55-.95-2-1.16-2.37-2.21a1.53 1.53 0 01.52-1.58 2.64 2.64 0 011.63-.59 13.11 13.11 0 011.76 0l.36-1.22a7.73 7.73 0 00-4.11.34 3.7 3.7 0 00-1.94 1.69 5.38 5.38 0 00-.28 3.05c.21 2.4-.27 3.65-.75 5.98z" opacity=".35"/><path d="M114.07 329.31a11.66 11.66 0 016.42-10c6.61-3.59 10.74-1.49 12.83-.06 2.48 1.69 6.06 5.27 4 8-2.22 2.93-5.85 4.39-12.68 4.64s-10.57-2.58-10.57-2.58zm-7.91-23.57a.76.76 0 00.65-.21c.92-.92 6.46-4 10.48-2.1.11-.16.32-1.14-.16-1.47a12.74 12.74 0 00-11.44 2.54.71.71 0 000 1 .77.77 0 00.47.24zm12.67 2.08a2 2 0 00-.6-1.56c-4.62-.86-9.42 1.87-10.49 2.94a.71.71 0 000 1 .79.79 0 001.08 0c.93-.87 6.38-3.73 10.01-2.38zm6.75 7.18c0-.48-1-1.24-1.73-1.47-5.13-.57-9.64 3.17-10.55 4.43a.71.71 0 00.21 1 .77.77 0 00.46.13.81.81 0 00.61-.32c.8-1.07 6.18-5.24 11-3.77zm-14.9 0a.82.82 0 00.63-.29c.8-1 5.47-4.78 10.07-3.39.05-.41-.77-1.24-1.18-1.38-4.59-.61-9.19 2.69-10.12 3.88a.71.71 0 00.15 1 .76.76 0 00.45.18z" fill="#fafafa"/><path d="M214.06 215.4c-4.06 0-9.12-1.43-14.74-5.26a3 3 0 013.43-5c7.56 5.16 13 4.56 15 3.39a4.28 4.28 0 001.65-3.09c.48-3-.5-7.82-4.68-12.54-8.84-10-19.93-15.11-37.09-17.16a3 3 0 01.72-6c18.52 2.2 31.13 8.11 40.91 19.16 4.74 5.35 7 11.9 6.14 17.52a10 10 0 01-4.59 7.36 13.22 13.22 0 01-6.75 1.62z" fill="#455a64"/><path d="M175.68 137.58c4.59-4.33 8.64-17.05 6.55-30.41s-14.43-25.85-19.35-28.56-8.38.79-7 5.78c1.82 6.77 4.09 22-8.56 28.73a44.41 44.41 0 008.35 17.88c6.52 7.87 20.01 6.58 20.01 6.58z" fill="#fff"/><path d="M175.68 137.58c4.59-4.33 8.64-17.05 6.55-30.41s-14.43-25.85-19.35-28.56-8.38.79-7 5.78c1.82 6.77 4.09 22-8.56 28.73a44.41 44.41 0 008.35 17.88c6.52 7.87 20.01 6.58 20.01 6.58z" fill="#fff" opacity=".75"/><path d="M158.52 87a10.91 10.91 0 01-3.24-.48.62.62 0 01-.4-.77.61.61 0 01.77-.39c4 1.27 9.35-.21 10.7-4.37a.6.6 0 111.15.37c-1.21 3.75-5.16 5.64-8.98 5.64zm4.55 8.41a13.21 13.21 0 01-6.68-1.86.61.61 0 01.6-1.06 11.76 11.76 0 009 1.35c5.52-1.33 6.7-4.56 6.95-5.89a.61.61 0 111.19.22c-.3 1.56-1.65 5.35-7.86 6.85a14 14 0 01-3.2.39zm6.28 10.52a18.41 18.41 0 01-13.54-5.7.61.61 0 010-.86.6.6 0 01.86 0 17.14 17.14 0 0012.66 5.31c7.8 0 10.11-3.66 11.1-5.22a.6.6 0 01.84-.19.61.61 0 01.19.84c-.99 1.61-3.65 5.82-12.11 5.82zm3.18 12.2a22.31 22.31 0 01-7.08-1.15c-5.74-1.94-9.89-5.27-12.32-9.89a.61.61 0 011.07-.57c2.32 4.41 6.12 7.45 11.64 9.31 7.6 2.56 14.86 0 16.89-1.86a.61.61 0 01.82.89c-1.55 1.47-5.81 3.27-11.02 3.27z" fill="#fff"/><path d="M157.19 126.73c10.89-12.43 6.68-32 4-37.64-3.77-7.9-2.17-11.37 1.13-10.75-4.61-2.14-7.76 1.26-6.48 6 1.82 6.77 4.09 22-8.56 28.73a45.33 45.33 0 007.18 16.3 23.74 23.74 0 002.73-2.64z" opacity=".1"/><path d="M185.68 211.35c-3.7-9-5.54-33.91-4.78-50.27 2.48-.52 5.51-3.9 4.29-8.27-1.1-3.93-2.17-4.45-5.49-8.69-2.36-3-4-7-6.12-10.28-7.28-11.14-16.53-18.57-30.15-21.78a4.21 4.21 0 01-3.07-5.26c.87-3 1.61-6.92.7-9.8-1.69-5.32-5.05-5.86-7.27-4.87s-2.39 3.19-1.72 6.76-.38 4.2-1.57 3.82-2.08-6.88-10.39-9.93-13.92 1-13.78 4.38c.15 3.75 2.87 4 8.64 4.66a11.46 11.46 0 016.71 3 4.23 4.23 0 01-2.19 7.06c-21.13 4.69-37.49 22.3-42.18 46.06a103.43 103.43 0 00-1.48 12.91 11.16 11.16 0 00-6.66-5.1c-4.08-1-5.7.95-5.64 2.77s2.32 2.69 4.61 3.64c3.67 1.52 4.27 2.93 4.27 2.93a11.43 11.43 0 00-5.68.57c-2.51 1.11-3.17 3.82-.74 4.86 1.35.57 3.42-.46 5.55-1 1.34-.31 3.82-.81 4 .8 0 3.77 0 7.7.09 11.75.31 11.41 2.31 19.22.49 29.57-1.39 7.84-8.25 14-1.36 20.51a10.66 10.66 0 009.5 2.63 4.33 4.33 0 015 3.32c.77 3.25 3.12 7.21 9.76 9 6.12 1.62 10-.24 12.43-2.51a4.13 4.13 0 016 .16c2.55 3.05 7.28 6.32 15.83 6.28s12.85-3.75 15-6.91a4.24 4.24 0 015.65-1.39c3.24 1.92 8.46 3.46 15 0 4.83-2.58 6.08-7.21 6.2-11a4.17 4.17 0 014.74-4 9.64 9.64 0 0010.09-4.28c4.57-6.96-.96-13.99-4.28-22.1z" fill="#fff"/><path d="M68.14 172.16c3.67 1.52 4.27 2.93 4.27 2.93a11.43 11.43 0 00-5.68.57c-2.51 1.11-3.17 3.82-.74 4.86 1.35.57 3.42-.46 5.55-1 1.34-.31 3.82-.81 4 .8 0 3.77 0 7.7.09 11.75.31 11.41 2.31 19.22.49 29.57-1.39 7.84-8.25 14-1.36 20.51a10.07 10.07 0 005.09 2.62c-.21-.11-3.43-5.29.37-12.76 5.34-10.51 5-17.08 3.61-38.37-1.71-26 1.48-37.17 10.93-55.57 9.69-18.86 25.09-19.77 31.63-24.77 3.56-2.72 2.34-7.65-.77-10.78-2.61-2.63-6.69-3.7-9.1-3.95-5.26-.54-10.15-1.46-9.16-4.09a3.93 3.93 0 00-1 2.63c.15 3.75 2.87 4 8.64 4.66a11.46 11.46 0 016.71 3 4.23 4.23 0 01-2.19 7.06c-21.16 4.74-37.52 22.35-42.21 46.11a103.43 103.43 0 00-1.48 12.91 11.16 11.16 0 00-6.66-5.1c-4.08-1-5.7.95-5.64 2.77s2.32 2.69 4.61 3.64zm26.58 76.09c-2.68-3.54-4.85-4.12-8.58-3.33a4.32 4.32 0 013.1 3.22c.77 3.25 3.12 7.21 9.76 9 4.32 1.15 7.55.55 9.91-.7-9.61 2.06-11.5-4.66-14.19-8.19zm46.08 11.56c-4.73.62-9.16-.45-14.14-4.1-5.37-3.93-8-3.56-11.32-2.23a3.82 3.82 0 012.1 1.28c2.55 3.05 7.28 6.32 15.83 6.28a22.48 22.48 0 007.53-1.23zm-6.53-162.47c-.18-3.16 1.83-5.54 4.31-4.5a4.45 4.45 0 00-4.79-.71c-2.23 1-2.39 3.19-1.72 6.76s-.38 4.2-1.57 3.82a1.26 1.26 0 01-.54-.56c.92 2 1.81 4 3.89 2.92s.6-4.58.42-7.73z" opacity=".1"/><path d="M114.15 169.43a6.49 6.49 0 006.5 4.82c5.35-.07 5.94-2.5 8.13-5.82s6.9-4.06 11-4.13a6.65 6.65 0 005.72-9.4 5.76 5.76 0 01-2.72 5.49c-3.28 2.14-7.64.21-11.93 2.26s-4.66 6.68-7.81 8.15a8.64 8.64 0 01-8.89-1.37z" opacity=".2"/><path d="M139.21 166.66a8 8 0 01-14.87 3.23c2.12-2 2.92-5.4 6.5-7.24 2.83-1.44 5-.78 7.35-.85a8.06 8.06 0 011.02 4.86z" fill="#455a64"/><path d="M119.75 172a8 8 0 01-7.86-4.82.61.61 0 01.31-.8.6.6 0 01.8.31c.92 2.08 3 4.47 7.81 4.05 2.69-.23 3.73-1.84 5-3.88a12.22 12.22 0 014.71-4.79 10.46 10.46 0 015.88-1 8.72 8.72 0 006.26-1.45 4.75 4.75 0 002.17-4 7 7 0 00-1.94-5 .61.61 0 01-.13-.85.59.59 0 01.84-.13c1.21.88 2.48 3.49 2.44 6a6 6 0 01-2.7 5 9.91 9.91 0 01-7 1.66 9.25 9.25 0 00-5.27.83 11 11 0 00-4.24 4.36c-1.32 2-2.69 4.15-6 4.43-.32.08-.71.08-1.08.08z" fill="#455a64"/><path d="M137.12 165.79a2.21 2.21 0 11-2.18-2.23 2.2 2.2 0 012.18 2.23z" fill="#f5f5f5"/><path d="M180.89 161.35l-.53-.27a5.6 5.6 0 01-3-1.12c-1.07-1-2.27-4.23-5.69-5.06s-5.34.83-9.14 1-5.07-2.46-5.83-4.66c-.41 3.73.65 6.23 3.35 7.33 3 1.22 8.44-1.34 10.76 0s3.66 4.11 6.55 4.43a5.16 5.16 0 003.45-.69c.05-.31.07-.64.08-.96z" opacity=".2"/><path d="M177.4 160a7.69 7.69 0 01-15.1-2.74 7.47 7.47 0 01.27-1.33c2.82-.07 5.39-2 9.14-1 3.29.88 3.52 3.49 5.69 5.07z" fill="#455a64"/><path d="M180.81 161.69a7.77 7.77 0 01-2.45-.52 7.44 7.44 0 01-3.38-3 5.86 5.86 0 00-3.44-2.73 10 10 0 00-5.69.38c-2.09.59-4.25 1.2-6.82-.35a6.1 6.1 0 01-2.71-7 .6.6 0 01.77-.37.61.61 0 01.37.78 4.94 4.94 0 002.19 5.55c2.13 1.28 3.86.79 5.87.23a11 11 0 016.35-.39 7 7 0 014.13 3.23 6.35 6.35 0 002.85 2.54 6.66 6.66 0 002.07.43.63.63 0 01.63.58.6.6 0 01-.58.63z" fill="#455a64"/><path d="M174.07 159.55a2.06 2.06 0 11-2-2.08 2 2 0 012 2.08z" fill="#f5f5f5"/><path d="M149.81 176.64c-10.39 4.65-19.52 13.84-23.74 24-2.6 6.25-1.18 11.44 2.3 12.62 6.88 2.32 14.59-8.4 22.26-12.14s13.91-.12 17.8-2.63c4.58-2.95 3.91-10.48 1.45-15.85-2.74-6.02-9.67-10.64-20.07-6z" fill="#455a64"/><path d="M168.17 198.61c-3.81-13.25-16.25-17.38-28.87-15.38a46.21 46.21 0 00-13.23 17.39c-2.6 6.25-1.18 11.44 2.3 12.62 6.88 2.32 14.59-8.4 22.26-12.14 7.42-3.62 13.63-.29 17.54-2.49z" fill="#f28f8f"/><path d="M160 199.3c-12.77-3.43-21 7.54-25.05 7.44s-6-3.63-.39-12.58 17.61-11.4 22.85-8.78c-5.23-2.58-11.62-3.17-18.07-2.15a46.21 46.21 0 00-13.23 17.39c-2.6 6.24-1.18 11.44 2.3 12.62 6.88 2.32 14.59-8.4 22.26-12.14a19.44 19.44 0 019.33-1.8z" opacity=".1"/><path d="M164.86 186.62c-2.46 1.07-2.43 4.34-4.46 11.29-.14.49-.28 1-.42 1.4 3.42.08 6.31.54 8.45-.84a6.54 6.54 0 001.17-1c.5-5.25-2.14-11.98-4.74-10.85z" fill="#f5f5f5"/><path d="M169.6 197.49a14.71 14.71 0 00.05-1.88 5.05 5.05 0 01-2.86 1.9 12.37 12.37 0 01-3.95 0s.64-4.06 1.28-7.55c.42-2.34 1.82-3.36 2.94-2.55-.69-.77-1.44-1.12-2.2-.79-2.46 1.07-2.43 4.34-4.46 11.29-.14.49-.28 1-.42 1.4 3.42.08 6.31.54 8.45-.84a6.54 6.54 0 001.17-.98z" fill="#e0e0e0"/><path d="M138.47 195.25c-2.47 1.07-2.43 4.34-4.46 11.29-.89 3-1.65 5.28-2.24 6.88 3.67-.7 7.52-4 11.43-7.17.55-5.25-2.11-12.14-4.73-11z" fill="#f5f5f5"/><path d="M143.2 206.24a15.11 15.11 0 000-2.61c-3.89 2.52-6.23 5.22-6.85 4.88s-.08-3.07.18-6.07c.32-3.63.77-7.39 3.19-7.13a1.51 1.51 0 00-1.28-.06c-2.47 1.07-2.43 4.34-4.46 11.29-.89 3-1.65 5.28-2.24 6.88 3.67-.7 7.52-4 11.43-7.17z" fill="#e0e0e0"/><path d="M53.76 240.39a3.28 3.28 0 01-1-.16 3 3 0 01-1.91-3.84C59 212.3 70.83 202.12 87.37 193.5a3 3 0 012.8 5.38C74.58 207 64.1 216.06 56.64 238.32a3.05 3.05 0 01-2.88 2.07z" fill="#455a64"/><path d="M51.62 234.22c-1.27 3.3-3.21 4.63-5.06 6.58s-3.85 3.13-5.78 6.17-2.84 8.2-2.26 10.61c.32 1.36 2.21 1.37 2.32.18.41-4.44 1.15-8.26 4.26-10.63a26.11 26.11 0 00-2.39 8.18c-.28 3.9.24 8.56 1.85 8.79s1.56-1.42 1.33-3.77-.44-8.55 2.69-13c0 0-1.12 6.54 0 10.72s3.28 7.16 4.48 6.65 1.14-1.31-.16-4.52c-1-2.49-1-5.65-.7-8.33a9.83 9.83 0 012.72-6.54 5.46 5.46 0 012.31-1.48 3.4 3.4 0 012.76.9 7.74 7.74 0 012.43 4.76c.28 2.1 3.75 2.29 2.46-3.61s-8.56-6.94-6.74-11.76zm151.05-22.09l2.77-5.36c-4.3-2.24.62-8.83-1.87-14.34s-5.15-3.29-4.13-1.44a6.84 6.84 0 01.89 5.27c-.42 1.47-1.37 2.33-2.38 1.46s-1.66-3.73-5.37-6.88a13.11 13.11 0 00-8-3.42c-2.9 0-1.88 2-.49 2.57 6 2.4 6.74 3.74 8.24 5.7s1.31 3.08.53 2.85-2-1.93-5.62-3.61-7.71-1.67-8.34-.9-.56 1.76 1.18 2.17a33.14 33.14 0 017.41 2.49c2.55 1.47 3.71 3.37 3.29 3.92s-2.6-1-5.92-1.6-5-.61-6.4-.07c-1 .39-.65 2.44 2.39 2.59a20 20 0 018.72 2.83 29.17 29.17 0 005.06 2.94 76.71 76.71 0 008.04 2.83z" fill="#455a64"/><path d="M103.38 131.17c3.51 1.84 9.14 11.42 2.24 21.61a20.32 20.32 0 01-21.15 9.05c-2.8-1.36-17.46-7.72-18.18-28S78 105.83 81.16 104s9.34-2.33 8.57 4.61-1.5 13.1 3.54 17.56c3.96 3.53 10.11 5 10.11 5z" fill="#fff"/><path d="M103.38 131.17c3.51 1.84 9.14 11.42 2.24 21.61a20.32 20.32 0 01-21.15 9.05c-2.8-1.36-17.46-7.72-18.18-28S78 105.83 81.16 104s9.34-2.33 8.57 4.61-1.5 13.1 3.54 17.56c3.96 3.53 10.11 5 10.11 5z" fill="#fff" opacity=".75"/><path d="M77.13 157.52a14.61 14.61 0 01-1.47-.07.61.61 0 01-.54-.67.61.61 0 01.67-.54c3 .33 12.34-.35 18.77-7.36 6.57-7.17 6.84-14.16 5.9-18.76a.6.6 0 01.47-.71.61.61 0 01.72.47c1 4.87.72 12.27-6.2 19.82-5.93 6.47-14.21 7.82-18.32 7.82zm-3.72-13.38a32.94 32.94 0 01-6.62-.64.6.6 0 11.26-1.18c.46.1 11.34 2.46 19.13-2.77 7.06-4.73 7.68-10.44 7.94-12.88a.61.61 0 01.67-.54.59.59 0 01.53.67c-.25 2.38-.93 8.71-8.46 13.76-4.29 2.88-9.44 3.58-13.45 3.58zm2.9-16.14a18.69 18.69 0 01-10.38-2.79.6.6 0 11.66-1c2 1.32 6.48 3.37 13.71 2.27 5.71-.87 8.19-2.71 10-4.56a.6.6 0 11.86.85c-2 2-4.62 4-10.68 4.91a27.64 27.64 0 01-4.17.32zm6.37-11.7a14.43 14.43 0 01-3.66-.49 10.3 10.3 0 01-6.93-5.31.61.61 0 01.27-.82.6.6 0 01.81.27 9 9 0 006.15 4.69 12.08 12.08 0 0010-1.6.59.59 0 01.84.17.6.6 0 01-.17.84 13.14 13.14 0 01-7.31 2.25z" fill="#fff"/><path d="M92.38 154.6c-4.42-.41-10-1.66-14.75-9s-6.28-22.65-1.91-31.87c2.88-6.07 8.63-11.63 12.78-9.77-1.85-1.73-5.27-1.11-7.34.08-3.12 1.8-15.59 9.55-14.87 29.82s15.38 26.62 18.18 28a20.32 20.32 0 0021.15-9.05c4.62-6.82 3.62-13.37 1.41-17.51 3.46 10.84-8.03 19.9-14.65 19.3z" opacity=".1"/><path d="M101.46 152.5s-5.22 5.75-5.26 11.27a5.26 5.26 0 1010.51 0c-.04-5.52-5.25-11.27-5.25-11.27z" fill="#fafafa"/><path d="M280 60.69l-64.46 37.19a2.67 2.67 0 00-1.22 2.1v40.54a2.66 2.66 0 001.22 2.09l4.35 2.43a2.7 2.7 0 002.43 0l64.49-37.18a2.69 2.69 0 001.21-2.1V65.21a2.66 2.66 0 00-1.22-2.09l-4.35-2.44a2.73 2.73 0 00-2.45.01z" fill="#fff"/><path d="M221.11 144.33v-40.54a2.69 2.69 0 011.21-2.1l64.49-37.18c.67-.39 1.21-.07 1.21.7v40.54a2.69 2.69 0 01-1.21 2.1L222.32 145c-.67.42-1.21.1-1.21-.67z" fill="#fff"/><path d="M222.32 145a2.67 2.67 0 01-2.43 0l-4.35-2.45a2.63 2.63 0 01-1.22-2.08V100a2.44 2.44 0 01.39-1.24l6.76 3.86a2.35 2.35 0 00-.36 1.19v40.54c0 .65.5 1.1 1.21.65z" opacity=".2"/><path d="M288 65c-.09-.61-.59-.83-1.2-.48l-64.47 37.18a2.52 2.52 0 00-.86.91l-6.77-3.86a2.39 2.39 0 01.84-.86L280 60.69a2.73 2.73 0 012.43 0l4.35 2.44A2.67 2.67 0 01288 65z" fill="#fff" opacity=".4"/><path d="M214.32 114.38l-9.76 9.93a1.08 1.08 0 00.18 1.66c.2.14 6.76 3.89 6.76 3.89l9.61-11.57z" fill="#fff"/><path d="M214.32 114.38l-9.76 9.93a1.08 1.08 0 00.18 1.66c.2.14 6.76 3.89 6.76 3.89l9.61-11.57z" opacity=".1"/><path d="M221.11 118.29l-9.76 9.93a1.08 1.08 0 00.92 1.82l8.84-1.28c.95 0 .95-10.47 0-10.47z" fill="#fff"/><path d="M229 115a17.58 17.58 0 01.47-3.42 15.17 15.17 0 011.18-3.23 13.63 13.63 0 011.86-2.8 9.37 9.37 0 012.52-2.09 5 5 0 012.51-.81 2.74 2.74 0 011.86.65 4.1 4.1 0 011.18 1.87 9.73 9.73 0 01.47 2.87v5.29a16.08 16.08 0 01-.47 3.41 15.54 15.54 0 01-1.18 3.25 12.87 12.87 0 01-1.86 2.8 9.94 9.94 0 01-2.51 2.08 5.26 5.26 0 01-2.52.83 2.74 2.74 0 01-1.86-.65 4.27 4.27 0 01-1.18-1.9 10.36 10.36 0 01-.47-2.86V115zm8.48.24v-4.99a4.88 4.88 0 00-.2-1.25 1.85 1.85 0 00-.47-.82 1.08 1.08 0 00-.74-.3 2 2 0 00-1 .33 4.43 4.43 0 00-1 .87 5.58 5.58 0 00-.74 1.16 6.8 6.8 0 00-.46 1.36 8.94 8.94 0 00-.21 1.48v5a3.37 3.37 0 00.67 2.08c.39.43 1 .41 1.79-.05a4.14 4.14 0 001.77-2 8.11 8.11 0 00.6-2.85zm15.7-9.98v2.29a13 13 0 01-.43 2.92 14.3 14.3 0 01-1.06 2.8 11.86 11.86 0 01-1.63 2.41 8.31 8.31 0 01-2.14 1.77 4.55 4.55 0 01-2.13.7 2.51 2.51 0 01-1.64-.53 3.66 3.66 0 01-1.06-1.57 7.35 7.35 0 01-.42-2.44v-2.29a12.42 12.42 0 01.4-2.91 13.75 13.75 0 011.08-2.8 12 12 0 011.64-2.44 8.31 8.31 0 012.13-1.78 4.42 4.42 0 012.14-.68 2.59 2.59 0 011.64.54 3.47 3.47 0 011.06 1.57 7.9 7.9 0 01.42 2.44zm-7 6.2a1.9 1.9 0 00.54 1.46c.31.25.73.22 1.24-.08a3.25 3.25 0 001.25-1.36 5.1 5.1 0 00.53-2.07v-2a2 2 0 00-.53-1.46 1.08 1.08 0 00-1.25.08 3.23 3.23 0 00-1.24 1.36 5 5 0 00-.54 2.08v1c0 .35-.06.71-.04.99zm14.88-1.59a3.35 3.35 0 01-1 .39 1.73 1.73 0 01-.73 0 1.35 1.35 0 01-.52-.27 2.38 2.38 0 01-.35-.38v6.33a1.46 1.46 0 01-.16.66 1.05 1.05 0 01-.36.45l-2.44 1.4a.28.28 0 01-.36 0 .62.62 0 01-.16-.48V98.41a1.39 1.39 0 01.16-.65.94.94 0 01.36-.45l2.35-1.31a.27.27 0 01.37 0 .66.66 0 01.15.48v.68l.38-.84a4.76 4.76 0 01.5-.87 6.84 6.84 0 01.73-.84 5.46 5.46 0 011.08-.78 3.66 3.66 0 011.64-.55 1.81 1.81 0 011.35.47 3.57 3.57 0 01.94 1.58 9.63 9.63 0 01.39 2.81v2.41a14.93 14.93 0 01-.39 3.26 12.87 12.87 0 01-.94 2.67 8.71 8.71 0 01-1.35 2 6.87 6.87 0 01-1.64 1.39zm.87-7.7a11.63 11.63 0 000-1.67 2.94 2.94 0 00-.45-1.55q-.39-.56-1.29 0a2.48 2.48 0 00-.74.63 4.26 4.26 0 00-.51.85 6.12 6.12 0 00-.32.94 6.45 6.45 0 00-.15 1v1.06a10 10 0 000 1 3.72 3.72 0 00.15.78 1.73 1.73 0 00.32.57.78.78 0 00.51.25 1.31 1.31 0 00.74-.21 3 3 0 001.29-1.52 6.74 6.74 0 00.45-2.13zm10.99-4.09q0-.33-.15-.42a.65.65 0 00-.49 0 7.49 7.49 0 00-.92.29c-.38.14-.85.29-1.42.46a2.13 2.13 0 01-2.26-.36 3.92 3.92 0 01-.79-2.81 6.93 6.93 0 01.33-2.07 9.28 9.28 0 01.92-2 9.59 9.59 0 011.42-1.85 8.6 8.6 0 011.85-1.44 5.21 5.21 0 011.85-.7 3 3 0 011.47.11 1.86 1.86 0 011 .77 2.47 2.47 0 01.39 1.27 1.2 1.2 0 01-.14.65 1.07 1.07 0 01-.38.46l-2.3 1.32c-.14.09-.25.1-.33.05l-.3-.15a.91.91 0 00-.46-.07 1.89 1.89 0 00-.78.31 2.5 2.5 0 00-.74.62 1.23 1.23 0 00-.3.81.8.8 0 00.09.45q.1.12.39.06a6 6 0 00.81-.25l1.37-.46c1.17-.38 2-.26 2.56.35a4 4 0 01.8 2.7 7.31 7.31 0 01-.32 2.08 9.49 9.49 0 01-1 2.11 10.45 10.45 0 01-1.55 2 10.14 10.14 0 01-2.06 1.58 5.67 5.67 0 01-2 .77 2.77 2.77 0 01-1.48-.17 2.08 2.08 0 01-.92-.84 2.75 2.75 0 01-.35-1.25 1.2 1.2 0 01.14-.65 1.13 1.13 0 01.38-.46l2.39-1.38c.15-.08.25-.09.31 0a1.84 1.84 0 00.25.21.83.83 0 00.45.1 2.13 2.13 0 00.87-.34 4 4 0 001-.82 1.46 1.46 0 00.4-1.04zm8.71-7.58a1.45 1.45 0 01-.16.65.94.94 0 01-.36.45l-2.44 1.4a.26.26 0 01-.36 0 .62.62 0 01-.16-.48V79.69a1.46 1.46 0 01.16-.66.94.94 0 01.36-.45l2.44-1.4a.26.26 0 01.36 0 .62.62 0 01.16.48zm0 6.39a1.39 1.39 0 01-.16.65.94.94 0 01-.36.45l-2.44 1.41a.27.27 0 01-.36 0 .59.59 0 01-.16-.47v-3a1.45 1.45 0 01.16-.65.94.94 0 01.36-.45l2.44-1.41a.27.27 0 01.36 0 .62.62 0 01.16.48z" fill="#455a64"/></svg>